<?xml version="1.0" encoding="UTF-8"?>
<svg id="Layer_3" data-name="Layer 3" xmlns="http://www.w3.org/2000/svg" viewBox="0 0 222.54 397.71">
  <defs>
    <style>
      .cls-1 {
        stroke: #036;
      }

      .cls-1, .cls-2 {
        fill: #036;
      }

      .cls-1, .cls-3 {
        stroke-miterlimit: 10;
      }

      .cls-4, .cls-3 {
        fill: #31819b;
      }

      .cls-3 {
        stroke: #31819b;
      }
    </style>
  </defs>
  <path class="cls-2" d="m110.06,100.71l-64,126.85,2.73,5.24L0,335.82s1.03,7.87,12.16,6.48c0,0,23.44-51.18,46.06-105.45l6.34-2.07s58.2-110.95,57.58-112.56c-1.19-3.07-12.08-21.5-12.08-21.5Z"/>
  <path class="cls-2" d="m107.82,111.32l54.38,138.58,5.78,2.23,41.2,117.65s6.52,5.57,13.36-3.55c0,0-21.03-57.87-44.91-117.63l2.96-6.22-58.98-144.94c-1.51-3.15-13.8,13.88-13.8,13.88Z"/>
  <path class="cls-2" d="m111.21,87.7l-21.41,166.35,4.16,4.97-16.09,133.79s3.32,8.55,13.53,3.06c0,0,7.23-66.18,12.77-135.57l5.44-4.57s19.12-135.78,18.05-137.39c-2.04-3.06-16.46-30.64-16.46-30.64Z"/>
  <path class="cls-2" d="m99.75,88.17l-.51,13.79s15.32,11.23,29.62-4.6l-1.02-14.81s-26.04,7.15-28.09,5.62Z"/>
  <path class="cls-1" d="m125.79,4.04c-1.44,9.61-2.46,41.67.77,64.34l9.26,5.49s1.61-59.87-5.2-70.03c0,0-.94-2.01-2.46-1.32-.91.41-2.18.23-2.37,1.51Z"/>
  <polygon class="cls-1" points="125.41 11.45 96.68 20.13 105.51 24.3 122.66 20.86 131.39 15.9 130.33 13.72 128.38 13.23 125.41 11.45"/>
  <polygon class="cls-1" points="127.96 60.34 93.88 73.74 105.11 83.57 122.47 79.11 129.75 70.43 130.64 65.7 133.32 61.62 127.96 60.34"/>
  <path class="cls-3" d="m126.3.68s-28.43,2.89-32.17,6.47,13.4,87.66,13.4,87.66l28.64-14.98S143.66,1.19,126.3.68Zm.77,3.15s2.64,3.38,2.3,10.11l-18.64,5.94s-.21-7.57-2.64-12.72l18.98-3.32Zm4.98,66.47l-19.79,9.19s2.6-40.89-1.36-54.55l20.26-6.3s4.34,19.62.89,51.66Z"/>
  <path class="cls-1" d="m93.26,9.33c-2.05,9.99-5.26,57.01.87,80.5l12.77,5.11s2.04-76.6-7.66-87.15c0,0-1.34-2.09-3.5-1.37-1.29.43-2.2,1.58-2.48,2.91Z"/>
  <g>
    <polygon class="cls-3" points="124.26 27.93 134.58 21.73 137.65 51.96 127.33 58.16 124.26 27.93"/>
    <polygon class="cls-2" points="123.94 27.98 127.08 58.85 91.91 69.16 92.64 37.79 99.09 31.22 134.99 20.9 123.94 27.98"/>
    <path class="cls-2" d="m136.86,38.72c-.15.07-2.65.53-4.39.78-1.74.24-3.85-1.45-4.63-5.85-.77-4.41,2.46-7.05,2.46-7.05,0,0,4.81-.77,4.88-.78,2.11-.24,4.16,2.46,4.57,6.03.4,3.46-.89,6.47-2.89,6.87Z"/>
    <ellipse class="cls-4" cx="135.98" cy="32.23" rx="1.96" ry="5.36" transform="translate(-2.79 15.76) rotate(-6.57)"/>
  </g>
  <path class="cls-4" d="m103,12.68l-2.77-5.64c1.06,1.15,1.98,3.09,2.77,5.64Z"/>
  <path class="cls-4" d="m113.11,73.29l-4.71,20.9-.91-2.83s1.05-60.77-5.46-81.51l7.89,12.68c.07.26,1.48,2.83,1.48,2.83,2.97,10.24,2.25,35.77,1.71,47.93Z"/>
  <polygon class="cls-2" points="109.64 86.06 104.28 93.28 112.54 104.22 136.9 86.96 138.18 84.9 109.64 86.06"/>
  <polygon class="cls-3" points="137.65 84.9 115.42 100.45 109.95 85.81 134.02 75.47 137.65 84.9"/>
  <polygon class="cls-2" points="96.58 80.39 90.54 94.88 91.74 97.44 107.56 97.37 96.58 80.39"/>
  <path class="cls-2" d="m130.32,107s-13.49-6.25-29.95.52l-3.7,14.43c.15.97.47,1.75.91,2.4,3.59,5.25,25.06,4.13,33.74-.51,1.83-.98,2.75-3.16,2.75-3.16l-3.75-13.67Z"/>
  <path class="cls-4" d="m124.68,105.04s3.8.35,5.18,1.41c2.39,1.82-5.26,4.8-13.12,4.86-6.65.05-10.01-1.24-10.01-1.24,0,0,3.02-.45,8.95-1.02,5.16-.5,9.86-2.46,8.99-4.01Z"/>
  <path class="cls-4" d="m122.14,133.62s8.56-2.39,11.75-6.03l45.65,112.19c-.56,1.26-1.69,3.38-3.89,5.26-3.26,2.79-6.82,3.34-8.23,3.48-15.09-38.3-30.18-76.6-45.27-114.89Z"/>
  <path class="cls-4" d="m104.67,252.33c1.97.3,3.79-.37,5.62-1.24,5.98-40.77,10.51-78.33,16.48-119.1-1.82.92-5.11,1.52-6.94,1.5l-15.16,118.84Z"/>
</svg>