<svg xmlns="http://www.w3.org/2000/svg" width="3815.865" height="3815.969" viewBox="0 0 3815.865 3815.969"><g transform="translate(-14328.354 -16060.02)"><path d="M16648.988,16631.58c-109.377,192.848-149.381,590.246-357.974,770.945-211,182.8-592.251,146.648-918.025,54.762-153.316-43.242-84.994-226.957-242.081-257.531-103.887-20.221-141.466,127.156-197.615,84.127-53.457-40.967,29.436-171.316,0-211.178-90-121.879-220.622-108.162-364.7,142.082-314.908,546.947,190.674,668.7,364.7,552.682s628.187-243.406,1042.54-94.24,739.179,218.547,1087.235-162.658,447.5-530.371,430.928-936.437S16869.506,16242.774,16648.988,16631.58Z" transform="translate(132 804)" fill="none" stroke="#036" stroke-width="10" opacity="0.5"/><path d="M17364.91,16489.754c-379.473,59-264.586,249.092-424.729,501.461s-473.473,232.705-417.77,681.725,727.611-426.078,727.611-426.078S17744.379,16430.756,17364.91,16489.754Z" transform="translate(15.598 716.754)" fill="none" stroke="#036" stroke-width="20" opacity="0.5"/><path d="M17222.281,16585.73c-60.451,0-116.834,31.945-144.734,177.109s58.268,187.551,118.723,187.551,151-89.562,123.094-187.551S17282.736,16585.73,17222.281,16585.73Z" transform="translate(68.641 730.887)" fill="none" stroke="#036" stroke-width="10" opacity="0.5"/><path d="M17248.07,17010c-179.588-34.418-415.937,115.342-510.67,220.516s-269.859,446.084-22.4,411.268,178.215-155.551,237.113-289.4S17427.658,17044.42,17248.07,17010Z" transform="translate(-14.443 773.764)" fill="none" stroke="#036" stroke-width="10" opacity="0.5"/><path d="M16308.341,17480.7c-49.779-2.031-190.048,46.648-206.229,98.541s142.706,94.967,164.309,97.771,50.063-32.8,61.223-66.277S16358.12,17482.729,16308.341,17480.7Z" transform="translate(132 804)" fill="none" stroke="#036" stroke-width="20" opacity="0.5"/><path d="M14820.122,17096.707c-103.013-37.771-200.876,91.852-231.779,248.947s-17.168,360.547,108.164,379.432,432.653-109.881,442.955-183.707,24.036-140.781-18.886-226.627-137.35,139.066-230.062,103.012-157.953-77.26-113.314-168.254S14923.135,17134.479,14820.122,17096.707Z" transform="translate(132 804)" fill="none" stroke="#036" stroke-width="20" opacity="0.5"/><path d="M14707.082,17296.934c-50.186-43.582-83.2,33.02-80.562,67.355s-18.489,237.723,40.941,283.945,143.953,14.529,171.688-36.979-73.958-106.975-84.523-161.123S14757.268,17340.516,14707.082,17296.934Z" transform="translate(132 804)" fill="none" stroke="#036" stroke-width="10" opacity="0.5"/><path d="M15087.438,17410.512c-38.3-62.072-80.562,5.283-128.105,30.375s-126.786,6.605-81.883,77.922,117.54,62.07,161.123,25.092S15125.737,17472.584,15087.438,17410.512Z" transform="translate(132 804)" fill="none" stroke="#036" stroke-width="10" opacity="0.5"/><path d="M17168.049,16540.531c-35.947-17.973-86.777,80.617-95.361,118.389s-14.1,115.422,27.375,134.025,109.416,20.52,118-60.174S17204,16558.5,17168.049,16540.531Z" transform="translate(132 804)" fill="none" stroke="#036" stroke-width="20" opacity="0.5"/><path d="M16653.762,17350.816c-82.41-25.754-115.031,25.752-127.049,85.844s-1.053,123.012,45.08,126.814,118.023-27.234,128.324-85.609S16736.172,17376.57,16653.762,17350.816Z" transform="translate(132 804)" fill="none" stroke="#036" stroke-width="20" opacity="0.5"/><path d="M16918.527,17063.723c-43.975,6.961-129.25,57.42-161.619,98.246s-67.084,113.313-25.879,104.729,92.713-87.561,137.352-104.729,115.906-51.521,113.314-72.109S16962.5,17056.762,16918.527,17063.723Z" transform="translate(132 804)" fill="none" stroke="#036" stroke-width="20" opacity="0.5"/><path d="M14734.438,17530.518c-8.844-23.365-42.369-28.443-53.544-5.078s0,91.43,24.382,87.367,89.4-18.287,72.13-40.637S14743.282,17553.883,14734.438,17530.518Z" transform="translate(132 804)" fill="none" stroke="#036" stroke-width="20" opacity="0.5"/><path d="M15634.915,17384.957c-200.311-79.711-349.2-208.482-454.22-247.014-74.578-27.361-108.128,20.4-144.219,0-86.756-49.035,3.434-101.295-115.031-236.93s-504.885-36.428-569.009,269.1,199.915,1063.7,347.023,958.086,467.727-384.742,709.135-437.551,848.333,527.131,1240.987,437.551,1339.059-1459.764,1203.266-1625.73-433.777-369.654-697.818-301.759-1082.562,614.835-1063.7,829.839,17.775,399.787-109.388,426.234S15835.226,17464.668,15634.915,17384.957Z" transform="translate(132 804)" fill="none" stroke="#036" stroke-width="20" opacity="0.5"/><path d="M15823.493,16781.578c-314.018-13.2-588.43,15.088-675.186,245.18-38.693,102.621,104.007,263.318,142.761,420.371,47.855,193.939,9.3,378.066,132.594,390.605,222.548,22.633,241.042,27.053,380.971,0s675.186-524.307,599.746-758.17c-42.7-132.367-169.052,6.832-314.273-67.664S15959.776,16787.307,15823.493,16781.578Z" fill="none" stroke="#036" stroke-width="20" opacity="0.5"/><path d="M15932.681,17894.1c-103.013,11.283-218.044,71.373-195.725,160.652s199.159,151.084,260.967,144.217,164.82-109.881,127.049-230.062S16035.693,17882.814,15932.681,17894.1Z" fill="none" stroke="#036" stroke-width="10" opacity="0.5"/><path d="M15717.392,16927.107c-136.149-64.727-430.767-20.086-453.086,136.15s236.586,296.848,145.076,399.518,4.464,265.6,71.423,278.994,374.967,40.176,533.436-133.916,274.53-368.271,227.659-470.941-234.354,102.67-312.473,0S15853.541,16991.834,15717.392,16927.107Z" fill="none" stroke="#036" stroke-width="10" opacity="0.5"/><path d="M15498.662,17052.1c-151.772,17.855-80.35,142.844-44.639,200.875s133.917,241.051,95.974,325.865,162.933,154,232.123,53.566,319.169-205.34,294.617-303.545-165.164-55.8-232.123-142.844S15650.435,17034.244,15498.662,17052.1Z" fill="none" stroke="#036" stroke-width="20" opacity="0.5"/><path d="M15654.9,17255.207c-60.263-2.232-82.581,80.352-42.406,122.758s127.221,107.133,169.628,91.51,107.134-120.525,55.8-167.4S15715.161,17257.439,15654.9,17255.207Z" fill="none" stroke="#036" stroke-width="10" opacity="0.5"/><path d="M14334,18923.006s259.125,519.781,572.955,441.324,366.6-800.371,729.463-721.914,499.1,664.49,951.738,600.656,417.539-467.176,976.551-820.234,572.01-580.285,572.01-580.285" fill="none" stroke="#036" stroke-width="10" opacity="0.5"/><path d="M14334,17725.537c315.9-458.445,373.929-339.48,519.007-342.383s208.912,49.326,240.829-43.523-203.108-240.83-124.767-327.875,383-426.527,606.423-409.117,633.651,44.5,801.94,157.66,154.917,325.781,250.667,398.32,631.545-271.715,772.465-323.857,591.914-78.342,655.748,37.721,80.926,224.318,80.926,224.318" fill="none" stroke="#036" stroke-width="10" opacity="0.5"/><path d="M15561,18793.324c-121.864-2.9-179.9,101.553-174.093,162.486s66.736,275.648,208.912,266.943,191.5-214.715,168.289-298.859S15682.864,18796.225,15561,18793.324Z" transform="translate(14.163 -41)" fill="none" stroke="#036" stroke-width="10" opacity="0.5"/><path d="M14334,19283.7s347.842,237.926,600.276,191.5,280.179-235.553,370.127-244.258,109.366,113.262,312.475,75.543,171.536-94.43,348.53-94.43,596.637,292.16,840.367,213.818,1003.936-533.883,1120-681.863,168.572-393.85,211.494-426.471" transform="translate(0 104)" fill="none" stroke="#036" stroke-width="20" opacity="0.5"/><path d="M18136.717,16657.822s-181.9-269.844-390.812-223.42-1016.182,714.273-1164.1,377.5-1014.971-527.043-1319.634-364.555-438.758,658.221-396.5,786.326-534.9,152.439-534.9,152.439" transform="translate(-0.789 -125.818)" fill="none" stroke="#036" stroke-width="20" opacity="0.5"/><path d="M17592.717,16067s-226.322,394.109-565.8,450.689-294.217,0-494.135-98.072S15985.834,16067,15985.834,16067" fill="none" stroke="#036" stroke-width="10" opacity="0.5"/><path d="M15186.165,16067c-456.414,371.477-297.989,363.934-388.519,609.115s-215,407.377-452.643,392.289" fill="none" stroke="#036" stroke-width="10" opacity="0.5"/><path d="M18136.717,19248.641s-615.662,546.945-1226.73,622.385" fill="none" stroke="#036" stroke-width="10" opacity="0.5"/><path d="M16389.445,19870s-433.782-281.875-795.9-176.26-595.979,176.26-595.979,176.26" fill="none" stroke="#036" stroke-width="10" opacity="0.5"/><path d="M14782.561,16067s-181.058,661.924-441.327,495.955" fill="none" stroke="#036" stroke-width="20" opacity="0.5"/><path d="M16446.023,16067c109.389,164.018,154.652,318.67,426.238,269.634S17358.854,16067,17358.854,16067" fill="none" stroke="#036" stroke-width="20" opacity="0.5"/></g></svg>